<svg id="Layer_1" data-name="Layer 1" xmlns="http://www.w3.org/2000/svg" xmlns:xlink="http://www.w3.org/1999/xlink" viewBox="0 0 837.963 259.3">
  <defs>
    <style>
      .cls-1 {
        fill: url(#linear-gradient);
      }

      .cls-2 {
        fill: url(#linear-gradient-2);
      }

      .cls-3 {
        fill: url(#linear-gradient-3);
      }

      .cls-4 {
        fill: url(#linear-gradient-4);
      }

      .cls-5 {
        fill: url(#linear-gradient-5);
      }
    </style>
    <linearGradient id="linear-gradient" x1="7.08" y1="-684.1" x2="7.08" y2="-579.1" gradientTransform="matrix(1, 0, 0, -1, 0, -502)" gradientUnits="userSpaceOnUse">
      <stop offset="0" stop-color="#6dcef1"/>
      <stop offset="0.106" stop-color="#65c5ec"/>
      <stop offset="0.275" stop-color="#4ab3e3"/>
      <stop offset="0.486" stop-color="#0099d4"/>
      <stop offset="0.728" stop-color="#007ac2"/>
      <stop offset="0.75" stop-color="#0077c0"/>
      <stop offset="1" stop-color="#1d4588"/>
    </linearGradient>
    <linearGradient id="linear-gradient-2" x1="213.812" y1="-684.1" x2="213.812" y2="-579.1" xlink:href="#linear-gradient"/>
    <linearGradient id="linear-gradient-3" x1="50.322" y1="-723.3" x2="50.322" y2="-539.9" xlink:href="#linear-gradient"/>
    <linearGradient id="linear-gradient-4" x1="170.68" y1="-723.3" x2="170.68" y2="-539.9" xlink:href="#linear-gradient"/>
    <linearGradient id="linear-gradient-5" x1="110.555" y1="-761.3" x2="110.555" y2="-502" xlink:href="#linear-gradient"/>
  </defs>
  <path d="M605,159.445v38.442c-.425,6.845-4.962,11.779-11.17,11.859-6.128.079-10.824-4.935-10.83-11.7V131.27a57.56,57.56,0,0,0-45.679-56.827c-30.164-6.686-60.409,12.5-67.731,42.978-7.163,29.847,11.62,60.966,41.307,68.527a58.128,58.128,0,0,0,35.1-1.83c7.083-2.627,13.291-.319,15.44,5.73,2.229,6.129-.875,11.78-7.959,14.565-47.754,18.465-101.477-14.326-106.571-65.1C442.45,94.9,472.933,57.092,517.344,51.76c41.546-4.935,81.819,26.821,86.515,68.208C605.45,133.976,604.1,147.984,605,159.445Z"/>
  <path d="M837.728,158.092c0,14.724.08,27.22,0,39.636-.08,8.436-6.686,13.61-14.167,11.222-4.775-1.512-7.481-5.571-7.561-11.381V131.588c0-28.413-18.226-51.176-45.844-57.384-30.881-6.924-63.353,15.361-68.129,46.64a74.279,74.279,0,0,0-.716,10.267c0,22.126.079,44.252,0,66.378,0,8.357-6.208,13.53-13.69,11.54a10.02,10.02,0,0,1-7.879-10.107c0-24.355-.4-48.789.079-73.144.717-34.144,27.539-65.264,61.683-72.665,45.764-9.87,89.857,21.091,95.667,67.412C838.763,133.817,837.41,147.108,837.728,158.092Z"/>
  <path d="M340.08,161.435c0-11.78-.239-23.559.079-35.338.955-35.975,30.961-69,66.617-73.7,9.79-1.273,19.579-.955,29.369-.8a10.508,10.508,0,0,1,10.187,11.063A10.757,10.757,0,0,1,435.508,73.09c-9.63.238-19.34-.8-28.891,1.432a57.709,57.709,0,0,0-45.048,56.191c-.08,22.285,0,44.491,0,66.776,0,7.243-4.378,12.177-10.665,12.257s-10.9-4.935-10.9-12.1V161.514A.078.078,0,0,1,340.08,161.435Z"/>
  <path d="M631,154.186V110.43c0-7.387,4.546-12.258,11.122-12.177,6.413.081,10.878,4.952,10.878,12.1v88.406c0,6.819-4.79,12.014-11.041,12.014-6.413,0-10.959-4.952-10.959-11.933C630.919,183.98,631,169.124,631,154.186Z"/>
  <path d="M642.062,78.581A13.572,13.572,0,1,1,655.91,65.21,13.6,13.6,0,0,1,642.062,78.581Z"/>
  <g>
    <path class="cls-1" d="M8.278,78.2a1.163,1.163,0,0,0-1.2-1.1,1.162,1.162,0,0,0-1.2,1.1h0L0,175.6a6.8,6.8,0,0,0,7.08,6.5,6.8,6.8,0,0,0,7.08-6.5Z"/>
    <path class="cls-2" d="M215.119,78.2a1.2,1.2,0,0,0-2.4,0h0l-5.991,97.4a7.106,7.106,0,0,0,14.16,0Z"/>
    <path class="cls-3" d="M52.173,39.5a1.749,1.749,0,0,0-3.485,0h0L39.756,211.6c0,5.4,4.793,9.7,10.566,9.7s10.565-4.4,10.565-9.7Z"/>
    <path class="cls-4" d="M172.313,39.5a1.749,1.749,0,0,0-3.485,0h0l-8.714,172.1c0,5.4,4.793,9.7,10.566,9.7,5.881,0,10.565-4.4,10.565-9.7Z"/>
    <path class="cls-5" d="M108.159,2.2a2.4,2.4,0,0,1,4.792,0l12.308,243.6c0,7.5-6.644,13.5-14.7,13.5-8.169,0-14.7-6.1-14.7-13.5Z"/>
  </g>
</svg>
